<?xml version="1.0" standalone="no"?>
<!DOCTYPE svg PUBLIC "-//W3C//DTD SVG 20010904//EN"
 "http://www.w3.org/TR/2001/REC-SVG-20010904/DTD/svg10.dtd">
<svg version="1.0" xmlns="http://www.w3.org/2000/svg"
 width="629.000000pt" height="473.000000pt" viewBox="0 0 629.000000 473.000000"
 preserveAspectRatio="xMidYMid meet">

<g transform="translate(0.000000,473.000000) scale(0.100000,-0.100000)"
fill="#000000" stroke="none">
<path d="M2765 3835 l-420 -243 -2 -278 -2 -279 405 -320 c223 -176 413 -326
424 -333 16 -12 31 -6 128 50 71 40 107 66 102 73 -5 6 -191 155 -414 330
l-405 320 -1 147 0 146 283 163 c155 89 291 168 302 175 18 12 52 -5 320 -160
l300 -174 5 -175 5 -175 115 67 115 67 0 179 0 178 -370 214 c-203 118 -392
227 -420 243 l-50 28 -420 -243z"/>
<path d="M3075 3343 c-60 -34 -108 -66 -106 -70 3 -5 188 -153 413 -331 l408
-323 0 -147 0 -147 -301 -174 c-232 -134 -305 -171 -319 -165 -10 5 -147 83
-304 174 l-285 165 -3 172 -3 173 -117 -67 -118 -67 0 -176 0 -175 406 -235
c224 -129 415 -239 424 -244 14 -6 113 46 439 234 l421 243 0 278 0 277 -402
319 c-221 175 -411 325 -423 334 -19 15 -27 12 -130 -48z"/>
<path d="M3503 1450 c-18 -4 -44 -15 -59 -24 -48 -32 -54 -67 -54 -293 0 -178
3 -213 18 -243 28 -55 71 -74 184 -78 149 -6 203 3 247 43 l36 33 0 246 0 246
-31 30 c-17 17 -48 35 -70 40 -46 11 -226 11 -271 0z m223 -96 c37 -10 44 -45
44 -223 0 -155 -2 -170 -21 -195 -19 -25 -25 -26 -108 -26 -136 0 -131 -9
-131 225 0 189 1 194 22 209 23 16 148 22 194 10z"/>
<path d="M1168 1438 c-22 -6 -50 -24 -68 -44 -28 -32 -30 -40 -30 -110 0 -129
23 -152 193 -190 61 -14 116 -29 121 -34 17 -17 12 -97 -8 -119 -18 -20 -29
-21 -168 -21 l-148 0 0 -51 0 -51 173 4 c192 3 221 12 257 71 25 41 27 153 4
203 -23 48 -64 69 -184 94 -62 13 -110 29 -117 38 -20 24 -16 79 7 102 18 18
33 20 143 20 82 0 127 4 135 12 7 7 12 29 12 50 l0 38 -142 -1 c-79 -1 -160
-6 -180 -11z"/>
<path d="M1630 1135 l0 -315 55 0 55 0 0 135 0 135 115 0 114 0 3 -132 3 -133
58 -3 57 -3 0 316 0 316 -57 -3 -58 -3 -3 -127 -3 -128 -114 0 -115 0 0 130 0
130 -55 0 -55 0 0 -315z"/>
<path d="M2375 1438 c-48 -127 -185 -561 -185 -586 l0 -33 56 3 57 3 20 68 20
68 111 -3 111 -3 21 -65 20 -65 57 -3 c56 -3 57 -3 57 25 0 15 -43 157 -96
315 l-96 288 -74 0 c-51 0 -76 -4 -79 -12z m124 -251 c18 -60 35 -115 38 -123
4 -11 -10 -14 -81 -14 -47 0 -86 3 -86 6 0 6 66 228 76 254 8 22 16 4 53 -123z"/>
<path d="M2820 1135 l0 -315 163 0 c184 0 221 7 263 51 l29 30 0 234 0 234
-29 30 c-42 44 -79 51 -263 51 l-163 0 0 -315z m316 207 c28 -18 34 -56 34
-210 0 -146 -2 -161 -21 -186 -20 -25 -24 -26 -120 -26 l-99 0 0 215 0 215 98
0 c53 0 102 -4 108 -8z"/>
<path d="M3960 1426 c0 -19 26 -132 135 -583 5 -21 11 -23 76 -23 47 0 71 4
74 13 2 6 27 92 56 190 29 97 55 177 58 177 3 0 31 -86 61 -190 l55 -191 70 3
70 3 62 250 c35 138 66 278 69 313 l7 63 -64 -3 -64 -3 -41 -227 c-22 -125
-43 -230 -46 -233 -6 -6 -25 52 -80 247 l-33 118 -67 0 -66 0 -15 -51 c-9 -28
-33 -111 -54 -185 -21 -74 -41 -134 -44 -134 -3 0 -15 55 -28 123 -12 67 -31
173 -43 235 l-20 112 -64 0 c-61 0 -64 -1 -64 -24z"/>
<path d="M4807 1443 c-17 -16 -1 -56 93 -237 l100 -193 0 -96 0 -97 55 0 55 0
0 90 0 90 100 200 c55 110 100 211 100 225 0 25 -2 26 -57 23 l-58 -3 -65
-157 c-36 -87 -69 -156 -73 -155 -5 1 -38 73 -74 160 l-66 157 -52 0 c-28 0
-55 -3 -58 -7z"/>
</g>
</svg>
